<svg xmlns="http://www.w3.org/2000/svg" xmlns:xlink="http://www.w3.org/1999/xlink" version="1.1" id="Layer_1" x="0" y="0" viewBox="0 210 1024 350" xml:space="preserve" style="enable-background:new 0 210 1024 350;">
  <defs>
    <style type="text/css">
      <![CDATA[
      ::selection {
        background: black;
      }
      ::-moz-selection {
        background: black;
      }
      .filtered{
        filter: url(#filter);
      }
     	.st0{fill:#E6E6E6;}
    	.st1{fill:#CCCCCC;}
    	.st2{fill:#B3B3B3;}
    	.st3{fill:#808080;}
    	.st4{fill:#F2F2F2;}
    	.st5{fill:none;stroke:#808080;stroke-width:7;stroke-miterlimit:10;}
    	.st6{fill:#535353;}
        .st7{fill:#C3C3C3;}
      ]]>
    </style>
    <filter id="filter">
      <feGaussianBlur in="SourceAlpha" result="blurOut" stdDeviation="3"/>
      <feOffset in="blurOut" result="dropBlur" dx="3" dy="3"/>
      <feComposite operator="over" in="SourceGraphic" in2="dropBlur" result="final"/>
    </filter>
  </defs>
  <g id="Layer_2" class="filtered">
    <path class="st0" d="M828.3 511.1c-73.9 0-134-60.1-134-134s60.1-134 134-134 134 60.1 134 134S902.2 511.1 828.3 511.1z"/>
    <path class="st1" d="M828.3 248.9c70.7 0 128.2 57.5 128.2 128.2S899 505.3 828.3 505.3s-128.2-57.5-128.2-128.2S757.6 248.9 828.3 248.9M828.3 237.3c-77.2 0-139.8 62.6-139.8 139.8S751 517 828.3 517s139.8-62.6 139.8-139.8S905.5 237.3 828.3 237.3L828.3 237.3z"/>
    <path class="st2" d="M844.4 427.8c0-0.7 0-1.3-0.1-2 -0.9 8.6-7.9 15.4-16.4 15.4s-15.5-6.7-16.4-15.4c-0.1 0.7-0.1 1.3-0.1 2 0 9.6 7.4 17.3 16.5 17.3S844.4 437.3 844.4 427.8z"/>
    <path class="st2" d="M802.6 427.8c0-0.7 0-1.3-0.1-2 -0.9 8.6-7.9 15.4-16.4 15.4s-15.5-6.7-16.4-15.4c-0.1 0.7-0.1 1.3-0.1 2 0 9.6 7.4 17.3 16.5 17.3S802.6 437.3 802.6 427.8z"/>
    <path class="st2" d="M869.6 441.1c-8.5 0-15.5-6.7-16.4-15.4 -0.1 0.7-0.1 1.3-0.1 2 0 9.6 7.4 17.3 16.5 17.3s16.5-7.8 16.5-17.3c0-0.7 0-1.3-0.1-2C885.1 434.4 878.1 441.1 869.6 441.1z"/>
    <path class="st2" d="M807.6 466.4c-8.5 0-15.5-6.7-16.4-15.4 -0.1 0.7-0.1 1.3-0.1 2 0 9.6 7.4 17.3 16.5 17.3s16.5-7.8 16.5-17.3c0-0.7 0-1.3-0.1-2C823.1 459.7 816.1 466.4 807.6 466.4z"/>
    <path class="st2" d="M849.4 466.4c-8.5 0-15.5-6.7-16.4-15.4 -0.1 0.7-0.1 1.3-0.1 2 0 9.6 7.4 17.3 16.5 17.3s16.5-7.8 16.5-17.3c0-0.7 0-1.3-0.1-2C864.8 459.7 857.8 466.4 849.4 466.4z"/>
    <path class="st2" d="M930.5 306.7c10.6-18.2 20.8-39.7 30.5-62.7h-1.1c-1.7 1-3.4 2.5-5.1 3.6 0.7-1.6 1.4-3.6 2-4.6h-1.1c-3 1-6 3.4-9 5.2 1-2.3 1.9-4.2 2.9-7.2h-1c-12.4 9-25.7 16.4-39.6 22.2 -19.1-16-48.9-26.1-82.5-26.1 -33.4 0-63 10.2-82.1 26 -14.1-5.9-27.5-13.1-40-21.7 1 2.4 1.9 4.8 2.9 7.2 -2.9-1.7-5.7-3.5-8.5-5.3 0.9 2.2 1.9 4.4 2.8 6.6 -2.5-1.5-5-3.1-7.5-4.7 9 21.7 18.4 41.1 28.2 58.3 0 0.4 0 0.8 0 1.2 0 21.3 15.3 40.3 39.2 52.7 21 21.5 43.2 32.9 66.1 32.9 23.7 0 46.5-12.5 68.1-35.4C916.2 343 929.5 325.8 930.5 306.7z"/>
    <path class="st3" d="M839 336v-40h5.9c0 0 0-0.3-0.1-0.6l6.4 0.9c0 0-0.2-1-0.1-1.7 -1.9-9.9-2.9-21.4-3.4-38.8v0.1c-2.4 8.5-5.3 15.6-8.2 21.9 -3.1-11.3-6-23.7-9.1-40.7l0 0c-3.1 18-6.1 30.6-9.4 41.8 -3.1-6.5-6-14-8.7-23l0 0c-0.5 17.4-1.3 28.9-3.4 38.9 0.1 0.7-0.1 1.9-0.1 1.9l7-1.1c0 0.4 0 0.7-0.1 0.7h2.8v40h-41.3c0.2 3 0.5 2.6 0.7 3.8 18.9 16.3 33.6 36.2 49.8 65.2l0 0c16.1-28 30.8-48.6 49.4-64.9 0.2-1.3 0.6-1.1 0.8-4.1h-39V336z"/>
    <path class="st3" d="M688.4 377.2c0 42.8 19.7 81.6 51.8 110.1 10.3-27.3 16.3-59.8 16.3-94.6 0-44.6-9.8-85.3-26-116.4C704.2 303.8 688.4 338.9 688.4 377.2z"/>
    <path class="st3" d="M929.4 276.7c-15.8 31-25.4 71.3-25.4 115.5 0 34.4 5.8 66.6 15.9 93.7 31.3-28.5 50.6-66.9 50.6-109.3C970.5 338.8 955.1 304 929.4 276.7z"/>
    <path class="st4" d="M770.4 265.9c-31.9 1.4-57.9 26.7-58 56.5s22.2 54.4 49.9 54.9c27.6 0.5 53.6-24.7 58-56.5C824.7 289.1 802.4 264.5 770.4 265.9z"/>
    <path class="st4" d="M886.8 265.9c-31.9-1.4-54.2 23.2-49.9 54.9 4.4 31.7 30.3 57 58 56.5 27.6-0.5 50-25.1 49.9-54.9S918.7 267.3 886.8 265.9z"/>
    <path class="st5" d="M771.4 263.9c-31.9 1.4-57.9 26.7-58 56.5s22.2 54.4 49.9 54.9c27.6 0.5 53.6-24.7 58-56.5C825.7 287.1 803.4 262.5 771.4 263.9z"/>
    <path class="st5" d="M887.8 263.9c-31.9-1.4-54.2 23.2-49.9 54.9 4.4 31.7 30.3 57 58 56.5 27.6-0.5 50-25.1 49.9-54.9S919.7 265.3 887.8 263.9z"/>
    <circle class="st6" cx="774" cy="323.5" r="18.8"/>
    <circle class="st6" cx="883.8" cy="323.5" r="18.8"/>
    <path class="st7" d="M139.1 311v168h-42V311H32.5v-32.4H204V311H139.1z"/>
    <path class="st7" d="M164.5 479V361.2c0-8.4-0.1-15.5-0.4-21.1 -0.2-5.6-0.5-10.6-0.8-15h38.1c0.3 1.7 0.7 6.9 1.1 15.6 0.5 8.7 0.7 14.4 0.7 17.3h0.6c3.9-10.8 7.3-18.4 10.4-22.8 3-4.4 6.6-7.7 10.8-9.8 4.2-2.1 9.4-3.2 15.6-3.2 5.1 0 9.2 0.7 12.4 2.1v33.4c-6.4-1.4-12.1-2.1-17.1-2.1 -10 0-17.7 4-23.3 12.1 -5.5 8.1-8.3 20-8.3 35.8V479H164.5z"/>
    <path class="st7" d="M264.4 297.3v-29.4h40v29.4H264.4zM264.4 479V325.1h40V479H264.4z"/>
    <path class="st7" d="M463 401.3c0 25.7-5.1 45.5-15.4 59.5s-24.8 21-43.6 21c-10.8 0-20.2-2.3-28.2-7s-14.2-11.4-18.4-20.3h-0.9c0.6 2.8 0.9 11.5 0.9 25.9v59h-40V360.5c0-14.5-0.4-26.3-1.1-35.4h38.8c0.5 1.7 0.9 5.1 1.2 10.1 0.3 5 0.5 10 0.5 14.9h0.6c9-18.9 25.4-28.3 49.2-28.3 17.9 0 31.8 6.9 41.7 20.7C458.1 356.3 463 375.9 463 401.3zM421.4 401.3c0-34.5-10.6-51.8-31.7-51.8 -10.6 0-18.8 4.6-24.4 13.9s-8.5 22.3-8.5 39c0 16.6 2.8 29.4 8.5 38.5 5.6 9.1 13.7 13.6 24.1 13.6C410.7 454.5 421.4 436.8 421.4 401.3z"/>
    <path class="st7" d="M474.7 479V267.9h40V479H474.7z"/>
    <path class="st7" d="M597.9 481.8c-23.1 0-40.9-6.8-53.3-20.6 -12.4-13.7-18.6-33.7-18.6-59.9 0-25.4 6.3-44.9 18.9-58.6 12.6-13.7 30.5-20.5 53.6-20.5 22.1 0 39 7.3 50.6 22 11.7 14.6 17.5 36.1 17.5 64.4v1.1h-98.7c0 15 2.8 26.3 8.3 33.9s13.4 11.4 23.7 11.4c14.1 0 23-6.1 26.7-18.3l37.7 3.3C653.4 467.9 631.3 481.8 597.9 481.8zM597.9 347.4c-9.4 0-16.6 3.3-21.7 9.8 -5.1 6.5-7.8 15.7-8 27.5h59.7c-0.8-12.4-3.7-21.7-9-27.9C613.7 350.5 606.7 347.4 597.9 347.4z"/>
  </g>
</svg>
